<svg width="48" height="24" viewBox="0 0 48 24" fill="none" xmlns="http://www.w3.org/2000/svg">
<path d="M10.9644 5.63248L12.2844 8.27248C12.4644 8.63998 12.9444 8.99248 13.3494 9.05998L15.7419 9.45748C17.2719 9.71248 17.6319 10.8225 16.5294 11.9175L14.6694 13.7775C14.3544 14.0925 14.1819 14.7 14.2794 15.135L14.8119 17.4375C15.2319 19.26 14.2644 19.965 12.6519 19.0125L10.4094 17.685C10.0044 17.445 9.33692 17.445 8.92442 17.685L6.68192 19.0125C5.07692 19.965 4.10192 19.2525 4.52192 17.4375L5.05442 15.135C5.15192 14.7 4.97942 14.0925 4.66442 13.7775L2.80442 11.9175C1.70942 10.8225 2.06192 9.71248 3.59192 9.45748L5.98442 9.05998C6.38192 8.99248 6.86192 8.63998 7.04192 8.27248L8.36192 5.63248C9.08192 4.19998 10.2519 4.19998 10.9644 5.63248Z" fill="#FFCD1A"/>
<path d="M28.8907 17V14.968H23.3867V13.256L28.6027 5.8H31.0507V13.096H32.5067V14.968H31.0507V17H28.8907ZM25.6907 13.096H29.0347V8.184L25.6907 13.096ZM35.105 17.08C34.6997 17.08 34.3743 16.9627 34.129 16.728C33.8837 16.4827 33.761 16.184 33.761 15.832C33.761 15.48 33.8837 15.1867 34.129 14.952C34.3743 14.7067 34.6997 14.584 35.105 14.584C35.489 14.584 35.8037 14.7067 36.049 14.952C36.2943 15.1867 36.417 15.48 36.417 15.832C36.417 16.184 36.2943 16.4827 36.049 16.728C35.8037 16.9627 35.489 17.08 35.105 17.08ZM41.9319 17.192C41.0892 17.192 40.3745 17.0373 39.7879 16.728C39.2119 16.4187 38.7479 16.0027 38.3959 15.48C38.0545 14.9573 37.8039 14.376 37.6439 13.736C37.4945 13.0853 37.4199 12.4293 37.4199 11.768C37.4199 10.5093 37.5959 9.42133 37.9479 8.504C38.2999 7.58667 38.8065 6.87733 39.4679 6.376C40.1292 5.864 40.9292 5.608 41.8679 5.608C42.6572 5.608 43.3239 5.76267 43.8679 6.072C44.4119 6.37067 44.8332 6.76533 45.1319 7.256C45.4305 7.74667 45.6065 8.27467 45.6599 8.84H43.6439C43.5585 8.37067 43.3612 8.01333 43.0519 7.768C42.7425 7.512 42.3425 7.384 41.8519 7.384C41.3932 7.384 40.9932 7.52267 40.6519 7.8C40.3105 8.07733 40.0439 8.49333 39.8519 9.048C39.6705 9.60267 39.5639 10.3013 39.5319 11.144C39.5319 11.1547 39.5319 11.1707 39.5319 11.192C39.5319 11.2133 39.5319 11.2293 39.5319 11.24C39.7025 10.952 39.9265 10.696 40.2039 10.472C40.4812 10.248 40.8012 10.072 41.1639 9.944C41.5265 9.816 41.9105 9.752 42.3159 9.752C42.9345 9.752 43.5105 9.90133 44.0439 10.2C44.5772 10.4987 45.0092 10.92 45.3399 11.464C45.6705 12.008 45.8359 12.6533 45.8359 13.4C45.8359 14.072 45.6705 14.7013 45.3399 15.288C45.0199 15.864 44.5665 16.328 43.9799 16.68C43.3932 17.0213 42.7105 17.192 41.9319 17.192ZM41.8039 15.336C42.1879 15.336 42.5239 15.256 42.8119 15.096C43.1105 14.936 43.3452 14.7173 43.5159 14.44C43.6865 14.152 43.7719 13.8267 43.7719 13.464C43.7719 13.08 43.6865 12.7493 43.5159 12.472C43.3452 12.1947 43.1105 11.976 42.8119 11.816C42.5132 11.656 42.1719 11.576 41.7879 11.576C41.4145 11.576 41.0785 11.656 40.7799 11.816C40.4812 11.976 40.2412 12.2 40.0599 12.488C39.8892 12.7653 39.8039 13.0853 39.8039 13.448C39.8039 13.8213 39.8892 14.152 40.0599 14.44C40.2412 14.7173 40.4812 14.936 40.7799 15.096C41.0892 15.256 41.4305 15.336 41.8039 15.336Z" fill="white"/>
</svg>
