<svg width="48" height="24" viewBox="0 0 48 24" fill="none" xmlns="http://www.w3.org/2000/svg">
<path d="M10.9644 5.63248L12.2844 8.27248C12.4644 8.63998 12.9444 8.99248 13.3494 9.05998L15.7419 9.45748C17.2719 9.71248 17.6319 10.8225 16.5294 11.9175L14.6694 13.7775C14.3544 14.0925 14.1819 14.7 14.2794 15.135L14.8119 17.4375C15.2319 19.26 14.2644 19.965 12.6519 19.0125L10.4094 17.685C10.0044 17.445 9.33692 17.445 8.92442 17.685L6.68192 19.0125C5.07692 19.965 4.10192 19.2525 4.52192 17.4375L5.05442 15.135C5.15192 14.7 4.97942 14.0925 4.66442 13.7775L2.80442 11.9175C1.70942 10.8225 2.06192 9.71248 3.59192 9.45748L5.98442 9.05998C6.38192 8.99248 6.86192 8.63998 7.04192 8.27248L8.36192 5.63248C9.08192 4.19998 10.2519 4.19998 10.9644 5.63248Z" fill="#FFCD1A"/>
</svg>
